<svg id="Layer_1" data-name="Layer 1" xmlns="http://www.w3.org/2000/svg" xmlns:xlink="http://www.w3.org/1999/xlink" viewBox="0 0 331.46 324.89"><defs><style>.cls-1,.cls-2{stroke-miterlimit:10;}.cls-1{stroke:url(#linear-gradient);}.cls-2{stroke:url(#linear-gradient-2);}</style><linearGradient id="linear-gradient" x1="-0.5" y1="170.06" x2="330.96" y2="170.06" gradientUnits="userSpaceOnUse"><stop offset="0.17" stop-color="#fff"/><stop offset="0.8"/></linearGradient><linearGradient id="linear-gradient-2" x1="133.5" y1="175.54" x2="195.5" y2="175.54" xlink:href="#linear-gradient"/></defs><title>chip</title><path class="cls-1" d="M66,8.7c-9.8,3.5-13.1,10-9.9,19.1,2.2,6.3,13.7,9.7,19.2,5.8,1.2-.9,3.2-2.3,4.4-3.2,1.7-1.2,6.1-1.7,20.5-2.1,16.5-.5,18.5-.4,20.1,1.1s1.7,4.9,1.7,35.5c0,25.5-.3,34.1-1.3,35.3s-3.5,1.7-10.7,2c-8.6.4-10,.7-14.7,3.6l-5.1,3.3-16.4-.3-16.3-.3-.3-10.4-.3-10.4,3.5-3.6c4-4.2,5.1-8.4,3.7-13.8a13.29,13.29,0,0,0-21.5-6.7c-6.1,5.3-6.3,13.8-.5,19.9L45,86.6v15c0,11.4.3,15.5,1.4,17,1.3,1.7,3,1.9,19.8,2.2,10,.2,18.5.7,18.8,1.2s.3,9.5,0,20.1l-.5,19.4-29.4.3-29.5.2-3-2.9c-7.1-6.7-13.6-6.9-20.3-.8-2,1.8-2.3,3-2.3,9.1,0,4,.6,7.8,1.3,8.6a14.28,14.28,0,0,0,10.6,5c4.2,0,10.5-3.1,11.5-5.5.5-1.3,5.3-1.5,31.1-1.5H85.1l-.3,14.7-.3,14.8-36.6.5c-34.3.5-36.8.6-38.8,2.4S7,209.2,7,232v23.6L3.5,259C.2,262.2,0,262.7,0,269.5c0,6.1.3,7.4,2.5,9.7,4.5,4.9,14.4,4.9,18.9.2a21.44,21.44,0,0,0,3.6-6.5c1.5-4.5.3-8.7-3.9-13.2l-2.6-2.8.3-19.7c.2-10.8.6-20,.8-20.4S34.5,216,52,216c24,0,32.1.3,32.6,1.2.4.7,1.1,6.1,1.5,12,.6,9.5,1,11.2,3.6,14.9a19.93,19.93,0,0,0,8,6.8l5.3,2.6v22.4l-8.2.3c-11.2.4-13.2.1-16-2.6-3.4-3.4-6.2-4.6-10.6-4.6-14.9,0-18,22.2-3.7,26.1,4.8,1.4,9.3.3,13.3-3.2,3.3-2.9,3.3-2.9,16.8-2.9,9.5,0,14.5-.4,16.9-1.4l3.5-1.5V271.6c0-7.9.3-15.1.6-16,.5-1.4,3.3-1.6,20.5-1.6H156v54.4l-3.2,3.4c-3,3-3.3,3.9-3.3,9.5,0,9.5,1.5,10.7,13.1,10.7h9.2l2.1-3.4c3.7-6,2.5-12.1-3.7-18.3-2.2-2.2-2.2-2.3-2-29l.3-26.8,15.3-.3,15.2-.3v67.3l2.9,2.9,2.9,2.9h45.9l2.3,2.5c2.2,2.3,3,2.5,11.6,2.5s9.3-.2,10.7-2.4a13.82,13.82,0,0,0-3-18.9c-5.3-4-10.5-3.7-16.9.8l-4.9,3.5H232c-10.2,0-19.1-.4-19.9-.9-1.1-.7-1.1-3.1-.1-14.9a136.69,136.69,0,0,0,0-28.6c-.6-8-.9-14.9-.6-15.4s5.1-1.1,10.6-1.4c8.8-.4,10.5-.8,14.7-3.4,4.8-3,9.9-9.3,10.5-12.9.3-1.9,1.2-2,12.1-2.3l11.7-.3v10.5c0,10.4,0,10.4-3.4,14.5-1.9,2.3-3.8,5.1-4.1,6.2-1.1,3.3,1.4,10.4,4.7,13.6,2.5,2.4,3.7,2.8,8.8,2.8s6.3-.4,9-3c6.2-5.9,6.2-14.1,0-20l-3-2.9V241.4c0-20.2,1-19.3-21-19.7l-13.5-.2v-39l27.3-.3,27.3-.2,4.2,3.5c7.5,6.4,17,4.2,21.2-4.8,2.6-5.4,2.6-5.8.1-10.7-2.2-4.3-5.6-7-10.1-7.7-4.8-.8-7.5.1-12.2,4.2l-4.2,3.5-26.8-.2-26.8-.3v-30l34.6-.3c33.7-.2,34.7-.3,36.5-2.3s1.9-4.1,2.1-24.3c.1-12.1.2-22.9.2-23.8s1.7-3.5,3.6-5.7c3.1-3.4,3.5-4.5,3.5-9.4,0-4.5-.5-6.1-2.6-8.6a13.4,13.4,0,0,0-13.9-4c-6.4,1.8-9.5,6.1-9.5,13.2,0,3.5.7,5.3,3.5,8.9l3.5,4.5-.2,19.4-.3,19.4-30.6.3-30.6.2-.6-5c-1.1-9.1-4.6-13.3-16.2-19.6-1.9-1.1-2-2.1-2-18V67.5l10.8-.3,10.8-.3,2.8,3.1a14.4,14.4,0,0,0,13.7,4c10.2-2.3,13.6-15.7,5.9-23-1.9-1.8-4-2.5-8.4-2.8-5.4-.4-6-.2-9.6,2.9l-3.8,3.4-15.8.5c-11,.3-16.2.9-17.1,1.8s-1.4,7.1-1.8,23l-.5,21.7-19.4.3c-14.9.2-19.6-.1-20.3-1-.4-.7-.8-15.1-.8-31.9,0-29.4.6-36.9,3.1-36.9.5,0,1.8-1.5,2.9-3.3,4.1-6.6,1.5-14.9-5.9-18.7-5-2.5-7.2-2.5-11.9-.1S157,16.6,157,22.3c0,3.9.6,5.3,4,9.2l4,4.6V67.8c0,17.4-.4,32.3-.8,33-.7.9-4.4,1.2-15.3,1l-14.4-.3-.5-40c-.4-32.8-.8-40.4-2-42.2-1.4-2.2-2-2.2-25.7-2.5l-24.2-.3-3.3-3.1a23.71,23.71,0,0,0-6.7-4.3C68.4,7.9,68.2,7.9,66,8.7ZM228.8,114.1a12.09,12.09,0,0,1,5.2,4.4c2,3.3,2,4.3,1.8,60.4l-.3,57.1-2.8,2.7-2.7,2.8-60,.5c-32.9.3-61.4.2-63.2-.2a12.5,12.5,0,0,1-6-3.7L98,235V177.6c0-57.1,0-57.3,2.1-60a12.48,12.48,0,0,1,4.3-3.6C107.6,112.7,225,112.8,228.8,114.1Z" transform="translate(0.5 -7.61)"/><path class="cls-2" d="M137.4,148c-3,1.2-3.4,4.4-3.4,28.1,0,20.2.6,25.4,3.3,27.1.7.4,13,.8,27.5.8,24.9,0,26.3-.1,28.2-2s2-3.3,2-26.5-.1-24.6-2-26.5-3.3-2-27.7-1.9C151.1,147.1,138.6,147.5,137.4,148Z" transform="translate(0.5 -7.61)"/></svg>