<?xml version="1.0" standalone="no"?>
<!DOCTYPE svg PUBLIC "-//W3C//DTD SVG 20010904//EN"
 "http://www.w3.org/TR/2001/REC-SVG-20010904/DTD/svg10.dtd">
<svg version="1.0" xmlns="http://www.w3.org/2000/svg"
 width="331.000000pt" height="345.000000pt" viewBox="0 0 331.000000 345.000000"
 preserveAspectRatio="xMidYMid meet">

<g transform="translate(0.000000,345.000000) scale(0.100000,-0.100000)"
fill="#000000" stroke="none">
<path d="M1629 2696 c-56 -20 -96 -53 -125 -102 -25 -42 -26 -52 -21 -121 3
-42 10 -79 15 -82 5 -3 15 -18 23 -33 15 -29 81 -78 104 -78 13 0 15 -27 15
-164 0 -90 3 -171 6 -180 4 -11 -3 -19 -23 -27 -15 -6 -49 -21 -75 -34 l-46
-22 -146 146 -147 147 16 37 c57 137 -58 297 -214 297 -43 0 -128 -38 -158
-71 -54 -59 -70 -176 -34 -247 53 -102 154 -143 276 -110 l46 12 141 -141 141
-141 -25 -59 c-14 -32 -28 -66 -31 -75 -6 -16 -24 -18 -182 -18 l-175 0 -15
38 c-49 115 -184 165 -300 111 -170 -80 -163 -331 11 -404 106 -44 240 9 286
112 l19 43 175 0 c157 0 175 -2 181 -17 3 -10 17 -44 31 -76 l25 -59 -145
-145 -145 -145 -31 16 c-41 21 -127 20 -177 -3 -49 -22 -99 -77 -115 -126 -7
-21 -10 -64 -8 -96 6 -79 43 -134 117 -171 70 -36 130 -37 197 -3 55 28 88 65
110 127 18 52 18 83 -2 141 l-16 47 140 140 c77 77 146 140 154 140 7 0 31 -9
53 -20 22 -11 47 -20 56 -20 27 0 35 -22 32 -90 -1 -36 -2 -113 -3 -171 l0
-106 -47 -25 c-28 -14 -60 -42 -78 -67 -27 -39 -30 -50 -30 -125 0 -73 3 -87
27 -124 106 -159 357 -113 399 74 23 101 -28 207 -120 249 l-41 18 0 179 c0
135 3 179 13 182 17 4 66 22 105 37 l32 14 141 -141 141 -142 -15 -60 c-38
-149 60 -282 208 -282 59 0 111 22 157 67 99 96 82 261 -34 338 -53 36 -157
47 -204 22 l-29 -16 -147 146 -147 146 18 36 c10 20 24 53 30 74 l13 37 176
-2 177 -3 15 -33 c65 -137 233 -174 349 -76 95 79 97 240 4 325 -45 42 -87 59
-148 59 -89 0 -162 -47 -206 -132 l-19 -36 -175 0 -175 1 -11 36 c-6 20 -20
52 -30 72 l-18 37 142 142 c124 124 145 140 167 135 60 -15 141 -17 173 -4
128 52 180 191 116 314 -62 122 -232 153 -337 61 -66 -58 -92 -164 -61 -250
l13 -37 -143 -143 -144 -144 -36 19 c-20 11 -53 24 -73 30 l-38 10 0 178 0
179 47 23 c58 29 98 79 114 141 44 164 -124 321 -282 264z m124 -107 c34 -15
57 -60 57 -109 0 -34 -6 -48 -34 -76 -37 -37 -75 -44 -136 -23 -74 26 -79 153
-8 203 26 18 86 21 121 5z m-690 -223 c45 -18 67 -56 67 -111 0 -38 -5 -52
-29 -76 -28 -28 -50 -34 -111 -30 -39 3 -90 63 -90 107 0 44 32 91 74 110 40
17 49 17 89 0z m1354 4 c6 0 25 -14 42 -31 26 -25 31 -38 31 -78 0 -56 -20
-88 -67 -107 -106 -45 -211 82 -141 171 25 32 75 57 103 50 11 -3 25 -5 32 -5z
m-646 -571 c93 -28 152 -113 153 -220 0 -57 -4 -74 -30 -115 -41 -67 -104
-105 -186 -111 -52 -4 -72 -1 -104 15 -86 44 -134 122 -134 217 0 153 149 259
301 214z m-930 -114 c56 -29 83 -99 58 -148 -28 -54 -50 -67 -110 -67 -52 0
-60 3 -83 31 -20 23 -26 42 -26 75 0 56 12 79 53 104 39 24 68 25 108 5z
m1813 -2 c70 -33 85 -127 30 -185 -24 -24 -36 -28 -78 -28 -59 1 -89 20 -111
74 -20 48 -3 102 44 133 40 27 68 29 115 6z m-1584 -678 c42 -22 60 -53 60
-106 0 -40 -5 -53 -31 -78 -26 -26 -38 -31 -81 -31 -45 0 -54 4 -84 36 -25 26
-34 44 -34 71 0 90 92 148 170 108z m1354 1 c46 -19 66 -52 66 -107 0 -40 -5
-53 -31 -78 -26 -26 -38 -31 -81 -31 -44 0 -54 4 -84 34 -26 26 -34 42 -34 70
0 51 25 95 63 111 41 18 60 18 101 1z m-648 -250 c29 -29 34 -41 34 -80 0
-114 -151 -160 -210 -64 -24 39 -25 78 -5 118 21 42 53 60 103 60 37 0 50 -6
78 -34z"/>
</g>
</svg>
